<?xml version="1.0" encoding="UTF-8"?>
<svg xmlns="http://www.w3.org/2000/svg" xmlns:xlink="http://www.w3.org/1999/xlink" width="480.24pt" height="129.87pt" viewBox="0 0 480.24 129.87" version="1.1">
<defs>
<clipPath id="clip1">
  <path d="M 0 0 L 95 0 L 95 129.871094 L 0 129.871094 Z M 0 0 "/>
</clipPath>
<clipPath id="clip2">
  <path d="M 311 43 L 389 43 L 389 129.871094 L 311 129.871094 Z M 311 43 "/>
</clipPath>
<clipPath id="clip3">
  <path d="M 400 4 L 480.238281 4 L 480.238281 129.871094 L 400 129.871094 Z M 400 4 "/>
</clipPath>
<clipPath id="clip4">
  <path d="M 142 19 L 202 19 L 202 129.871094 L 142 129.871094 Z M 142 19 "/>
</clipPath>
</defs>
<g id="surface1">
<g clip-path="url(#clip1)" clip-rule="nonzero">
<path style=" stroke:none;fill-rule:nonzero;fill:rgb(5.899048%,5.499268%,5.499268%);fill-opacity:1;" d="M 92.496094 55.582031 L 52.140625 55.582031 C 51.097656 55.582031 50.253906 56.429688 50.253906 57.46875 L 50.253906 77.199219 C 50.253906 78.242188 51.097656 79.089844 52.140625 79.089844 L 67.882813 79.089844 L 67.882813 103.601563 C 67.882813 103.601563 64.347656 104.808594 54.578125 104.808594 C 43.046875 104.808594 26.941406 100.59375 26.941406 65.175781 C 26.941406 29.75 43.710938 25.089844 59.457031 25.089844 C 73.085938 25.089844 78.960938 27.488281 82.695313 28.648438 C 83.867188 29.007813 84.957031 27.835938 84.957031 26.796875 L 89.457031 7.730469 C 89.457031 7.242188 89.292969 6.65625 88.734375 6.257813 C 87.21875 5.175781 77.960938 -0.00390625 54.578125 -0.00390625 C 27.636719 -0.00390625 0 11.457031 0 66.558594 C 0 121.660156 31.640625 129.871094 58.300781 129.871094 C 80.378906 129.871094 93.769531 120.4375 93.769531 120.4375 C 94.324219 120.132813 94.382813 119.359375 94.382813 119.007813 L 94.382813 57.46875 C 94.382813 56.429688 93.539063 55.582031 92.496094 55.582031 "/>
</g>
<path style=" stroke:none;fill-rule:nonzero;fill:rgb(5.899048%,5.499268%,5.499268%);fill-opacity:1;" d="M 300.476563 6.597656 C 300.476563 5.546875 299.644531 4.699219 298.601563 4.699219 L 275.878906 4.699219 C 274.839844 4.699219 273.996094 5.546875 273.996094 6.597656 C 273.996094 6.601563 274.003906 50.511719 274.003906 50.511719 L 238.585938 50.511719 L 238.585938 6.597656 C 238.585938 5.546875 237.746094 4.699219 236.710938 4.699219 L 213.988281 4.699219 C 212.953125 4.699219 212.109375 5.546875 212.109375 6.597656 L 212.109375 125.5 C 212.109375 126.550781 212.953125 127.402344 213.988281 127.402344 L 236.710938 127.402344 C 237.746094 127.402344 238.585938 126.550781 238.585938 125.5 L 238.585938 74.640625 L 274.003906 74.640625 C 274.003906 74.640625 273.941406 125.5 273.941406 125.5 C 273.941406 126.550781 274.785156 127.402344 275.824219 127.402344 L 298.601563 127.402344 C 299.640625 127.402344 300.472656 126.550781 300.476563 125.5 L 300.476563 6.597656 "/>
<path style=" stroke:none;fill-rule:nonzero;fill:rgb(5.899048%,5.499268%,5.499268%);fill-opacity:1;" d="M 135.375 22.199219 C 135.375 14.019531 128.816406 7.40625 120.722656 7.40625 C 112.636719 7.40625 106.074219 14.019531 106.074219 22.199219 C 106.074219 30.375 112.636719 37.003906 120.722656 37.003906 C 128.816406 37.003906 135.375 30.375 135.375 22.199219 "/>
<path style=" stroke:none;fill-rule:nonzero;fill:rgb(5.899048%,5.499268%,5.499268%);fill-opacity:1;" d="M 133.75 100.417969 C 133.75 97.371094 133.75 45.535156 133.75 45.535156 C 133.75 44.492188 132.910156 43.640625 131.871094 43.640625 L 109.21875 43.640625 C 108.179688 43.640625 107.25 44.710938 107.25 45.753906 C 107.25 45.753906 107.25 111.796875 107.25 124.386719 C 107.25 126.699219 108.691406 127.386719 110.554688 127.386719 C 110.554688 127.386719 120.222656 127.386719 130.964844 127.386719 C 133.203125 127.386719 133.75 126.285156 133.75 124.351563 C 133.75 120.136719 133.75 103.625 133.75 100.417969 "/>
<g clip-path="url(#clip2)" clip-rule="nonzero">
<path style=" stroke:none;fill-rule:nonzero;fill:rgb(5.899048%,5.499268%,5.499268%);fill-opacity:1;" d="M 386.832031 43.816406 L 364.28125 43.816406 C 363.25 43.816406 362.40625 44.671875 362.40625 45.71875 L 362.40625 104.019531 C 362.40625 104.019531 356.679688 108.210938 348.546875 108.210938 C 340.417969 108.210938 338.261719 104.523438 338.261719 96.5625 C 338.261719 88.589844 338.261719 45.71875 338.261719 45.71875 C 338.261719 44.671875 337.421875 43.816406 336.386719 43.816406 L 313.5 43.816406 C 312.46875 43.816406 311.621094 44.671875 311.621094 45.71875 C 311.621094 45.71875 311.621094 76.765625 311.621094 100.410156 C 311.621094 124.058594 324.800781 129.84375 342.929688 129.84375 C 357.804688 129.84375 369.796875 121.625 369.796875 121.625 C 369.796875 121.625 370.367188 125.957031 370.625 126.46875 C 370.882813 126.980469 371.554688 127.5 372.28125 127.5 L 386.84375 127.433594 C 387.875 127.433594 388.722656 126.582031 388.722656 125.535156 L 388.714844 45.71875 C 388.714844 44.671875 387.871094 43.816406 386.832031 43.816406 "/>
</g>
<g clip-path="url(#clip3)" clip-rule="nonzero">
<path style=" stroke:none;fill-rule:nonzero;fill:rgb(5.899048%,5.499268%,5.499268%);fill-opacity:1;" d="M 439.566406 108.140625 C 431.746094 107.902344 426.441406 104.351563 426.441406 104.351563 L 426.441406 66.699219 C 426.441406 66.699219 431.675781 63.492188 438.097656 62.917969 C 446.214844 62.191406 454.039063 64.644531 454.039063 84.011719 C 454.039063 104.4375 450.507813 108.46875 439.566406 108.140625 Z M 448.460938 41.148438 C 435.652344 41.148438 426.941406 46.859375 426.941406 46.859375 L 426.941406 6.597656 C 426.941406 5.546875 426.105469 4.699219 425.066406 4.699219 L 402.28125 4.699219 C 401.246094 4.699219 400.402344 5.546875 400.402344 6.597656 L 400.402344 125.5 C 400.402344 126.550781 401.246094 127.402344 402.285156 127.402344 C 402.285156 127.402344 418.089844 127.402344 418.09375 127.402344 C 418.804688 127.402344 419.34375 127.035156 419.742188 126.394531 C 420.136719 125.753906 420.703125 120.910156 420.703125 120.910156 C 420.703125 120.910156 430.019531 129.742188 447.660156 129.742188 C 468.367188 129.742188 480.242188 119.238281 480.242188 82.585938 C 480.242188 45.9375 461.277344 41.148438 448.460938 41.148438 "/>
</g>
<g clip-path="url(#clip4)" clip-rule="nonzero">
<path style=" stroke:none;fill-rule:nonzero;fill:rgb(5.899048%,5.499268%,5.499268%);fill-opacity:1;" d="M 199.058594 43.628906 L 182.011719 43.628906 C 182.011719 43.628906 181.988281 21.113281 181.988281 21.109375 C 181.988281 20.257813 181.546875 19.832031 180.5625 19.832031 L 157.335938 19.832031 C 156.433594 19.832031 155.945313 20.230469 155.945313 21.097656 L 155.945313 44.367188 C 155.945313 44.367188 144.308594 47.175781 143.519531 47.402344 C 142.734375 47.632813 142.160156 48.355469 142.160156 49.214844 L 142.160156 63.839844 C 142.160156 64.890625 143 65.738281 144.039063 65.738281 L 155.945313 65.738281 C 155.945313 65.738281 155.945313 81.03125 155.945313 100.917969 C 155.945313 127.046875 174.273438 129.613281 186.644531 129.613281 C 192.292969 129.613281 199.054688 127.796875 200.171875 127.386719 C 200.84375 127.136719 201.238281 126.4375 201.238281 125.679688 L 201.257813 109.59375 C 201.257813 108.546875 200.371094 107.695313 199.371094 107.695313 C 198.378906 107.695313 195.839844 108.101563 193.222656 108.101563 C 184.851563 108.101563 182.011719 104.207031 182.011719 99.167969 C 182.011719 94.132813 182.011719 65.738281 182.011719 65.738281 L 199.058594 65.738281 C 200.097656 65.738281 200.9375 64.890625 200.9375 63.839844 L 200.9375 45.523438 C 200.9375 44.472656 200.097656 43.628906 199.058594 43.628906 "/>
</g>
</g>
</svg>
