<?xml version="1.0" encoding="UTF-8"?>
<svg xmlns="http://www.w3.org/2000/svg" xmlns:xlink="http://www.w3.org/1999/xlink" width="588.77pt" height="144pt" viewBox="0 0 588.77 144" version="1.1">
<defs>
<clipPath id="clip1">
  <path d="M 579 113 L 588.769531 113 L 588.769531 123 L 579 123 Z M 579 113 "/>
</clipPath>
</defs>
<g id="surface1">
<path style=" stroke:none;fill-rule:nonzero;fill:rgb(0%,0%,0%);fill-opacity:1;" d="M 0 21.296875 L 22.214844 21.296875 L 22.214844 102.207031 L 63.34375 102.207031 L 63.34375 122.703125 L 0 122.703125 "/>
<path style=" stroke:none;fill-rule:nonzero;fill:rgb(0%,0%,0%);fill-opacity:1;" d="M 83.828125 19.796875 C 90.667969 19.796875 96.214844 25.34375 96.214844 32.175781 C 96.214844 39.019531 90.667969 44.550781 83.828125 44.550781 C 77 44.550781 71.453125 39.019531 71.453125 32.175781 C 71.453125 25.34375 77 19.796875 83.828125 19.796875 M 73.152344 53.957031 L 94.503906 53.957031 L 94.503906 122.675781 L 73.152344 122.675781 "/>
<path style=" stroke:none;fill-rule:nonzero;fill:rgb(0%,0%,0%);fill-opacity:1;" d="M 183.753906 21.289063 L 205.097656 21.289063 L 205.097656 81.898438 L 229.277344 53.925781 L 255.445313 53.925781 L 227.441406 85.742188 L 254.859375 122.703125 L 228.027344 122.703125 L 205.378906 88.730469 L 205.097656 88.730469 L 205.097656 122.703125 L 183.753906 122.703125 "/>
<path style=" stroke:none;fill-rule:nonzero;fill:rgb(0%,0%,0%);fill-opacity:1;" d="M 106.3125 53.964844 L 126.808594 53.964844 L 126.808594 63.359375 L 127.09375 63.359375 C 129.9375 57.949219 136.914063 52.257813 147.304688 52.257813 C 168.941406 52.257813 172.925781 66.492188 172.925781 84.988281 L 172.925781 122.675781 L 151.574219 122.675781 L 151.574219 89.261719 C 151.574219 81.289063 151.429688 71.046875 140.46875 71.046875 C 129.367188 71.046875 127.664063 79.730469 127.664063 88.691406 L 127.664063 122.675781 L 106.3125 122.675781 "/>
<path style=" stroke:none;fill-rule:nonzero;fill:rgb(0%,0%,0%);fill-opacity:1;" d="M 318.457031 110.78125 C 311.625 119.464844 300.386719 124.449219 289.277344 124.449219 C 267.933594 124.449219 250.851563 110.210938 250.851563 88.148438 C 250.851563 66.089844 267.933594 51.859375 289.277344 51.859375 C 309.21875 51.859375 321.734375 66.089844 321.734375 88.148438 L 321.734375 94.839844 L 272.203125 94.839844 C 273.898438 102.953125 280.027344 108.21875 288.285156 108.21875 C 295.261719 108.21875 299.953125 104.65625 303.515625 99.820313 Z M 300.386719 80.328125 C 300.523438 73.210938 294.976563 67.230469 287.28125 67.230469 C 277.894531 67.230469 272.765625 73.636719 272.203125 80.328125 "/>
<path style=" stroke:none;fill-rule:nonzero;fill:rgb(0%,0%,0%);fill-opacity:1;" d="M 402.9375 122.664063 L 383.289063 122.664063 L 383.289063 113.554688 L 383.011719 113.554688 C 379.726563 118.53125 371.480469 124.371094 361.796875 124.371094 C 341.296875 124.371094 327.777344 109.578125 327.777344 88.648438 C 327.777344 69.433594 339.730469 51.785156 359.371094 51.785156 C 368.203125 51.785156 376.457031 54.203125 381.296875 60.890625 L 381.578125 60.890625 L 381.578125 21.289063 L 402.9375 21.289063 Z M 366.199219 70.574219 C 355.53125 70.574219 349.128906 77.695313 349.128906 88.078125 C 349.128906 98.476563 355.53125 105.582031 366.199219 105.582031 C 376.882813 105.582031 383.289063 98.476563 383.289063 88.078125 C 383.289063 77.695313 376.882813 70.574219 366.199219 70.574219 "/>
<path style=" stroke:none;fill-rule:nonzero;fill:rgb(0.392151%,46.655273%,70.896912%);fill-opacity:1;" d="M 557.632813 0 L 434.914063 0 C 429.050781 0 424.285156 4.648438 424.285156 10.378906 L 424.285156 133.609375 C 424.285156 139.34375 429.050781 144 434.914063 144 L 557.632813 144 C 563.507813 144 568.289063 139.34375 568.289063 133.609375 L 568.289063 10.378906 C 568.289063 4.648438 563.507813 0 557.632813 0 "/>
<path style=" stroke:none;fill-rule:nonzero;fill:rgb(100%,100%,100%);fill-opacity:1;" d="M 456.320313 19.824219 C 463.148438 19.824219 468.699219 25.375 468.699219 32.207031 C 468.699219 39.042969 463.148438 44.59375 456.320313 44.59375 C 449.476563 44.59375 443.933594 39.042969 443.933594 32.207031 C 443.933594 25.375 449.476563 19.824219 456.320313 19.824219 M 445.636719 53.984375 L 466.996094 53.984375 L 466.996094 122.707031 L 445.636719 122.707031 "/>
<path style=" stroke:none;fill-rule:nonzero;fill:rgb(100%,100%,100%);fill-opacity:1;" d="M 480.394531 53.984375 L 500.878906 53.984375 L 500.878906 63.375 L 501.164063 63.375 C 504.015625 57.972656 510.984375 52.277344 521.371094 52.277344 C 543.003906 52.277344 546.996094 66.511719 546.996094 85.011719 L 546.996094 122.707031 L 525.652344 122.707031 L 525.652344 89.289063 C 525.652344 81.320313 525.503906 71.066406 514.554688 71.066406 C 503.4375 71.066406 501.734375 79.75 501.734375 88.710938 L 501.734375 122.707031 L 480.394531 122.707031 "/>
<path style=" stroke:none;fill-rule:nonzero;fill:rgb(0%,0%,0%);fill-opacity:1;" d="M 571.804688 114.992188 L 574.28125 114.992188 L 574.28125 122.707031 L 575.625 122.707031 L 575.625 114.992188 L 578.097656 114.992188 L 578.097656 113.644531 L 571.804688 113.644531 "/>
<g clip-path="url(#clip1)" clip-rule="nonzero">
<path style=" stroke:none;fill-rule:nonzero;fill:rgb(0%,0%,0%);fill-opacity:1;" d="M 586.851563 113.644531 L 584.203125 120.296875 L 581.5625 113.644531 L 579.648438 113.644531 L 579.648438 122.707031 L 580.988281 122.707031 L 580.988281 115.8125 L 583.761719 122.707031 L 584.652344 122.707031 L 587.425781 115.8125 L 587.425781 122.707031 L 588.765625 122.707031 L 588.765625 113.644531 "/>
</g>
</g>
</svg>
